<svg width="22" height="22" viewBox="0 0 22 22" fill="none" xmlns="http://www.w3.org/2000/svg">
<path d="M6.78656 10.173L10.5261 16.4317C10.5849 16.5301 10.6908 16.5908 10.8054 16.5917C10.8063 16.5917 10.8074 16.5917 10.8083 16.5917C10.9218 16.5917 11.0275 16.5329 11.0876 16.4365L14.9801 10.1778C14.9898 10.1622 14.9981 10.146 15.0047 10.1296C15.4701 9.36951 15.7156 8.50137 15.7156 7.61504C15.7156 4.95144 13.5482 2.78439 10.8839 2.78439C8.22052 2.78439 6.05347 4.95144 6.05347 7.61504C6.05347 8.50159 6.29922 9.36995 6.76486 10.1302C6.77099 10.1449 6.77823 10.1592 6.78656 10.173ZM10.8841 3.44229C13.1858 3.44229 15.0582 5.31426 15.0582 7.61526C15.0582 8.3968 14.8365 9.16256 14.4174 9.82944C14.4073 9.84523 14.399 9.86167 14.3922 9.87877L10.814 15.6313L7.37957 9.88337C7.37211 9.86474 7.36312 9.84654 7.35216 9.82923C6.933 9.16234 6.71136 8.3968 6.71136 7.61504C6.71136 5.31426 8.58334 3.44229 10.8841 3.44229Z" fill="#FFDF00"/>
<path d="M10.8848 9.41138C11.875 9.41138 12.6807 8.60572 12.6807 7.61548C12.6807 6.62524 11.875 5.81958 10.8848 5.81958C9.89452 5.81958 9.08887 6.62524 9.08887 7.61548C9.08887 8.60572 9.89452 9.41138 10.8848 9.41138ZM10.8848 6.47726C11.5124 6.47726 12.023 6.98784 12.023 7.61548C12.023 8.24312 11.5124 8.7537 10.8848 8.7537C10.2571 8.7537 9.74655 8.24312 9.74655 7.61548C9.74633 6.98784 10.2571 6.47726 10.8848 6.47726Z" fill="#FFDF00"/>
<path d="M15.0378 18.4803H6.73155C6.54981 18.4803 6.40271 18.6277 6.40271 18.8092C6.40271 18.9907 6.54981 19.138 6.73155 19.138H15.0378C15.2193 19.138 15.3666 18.9907 15.3666 18.8092C15.3666 18.6277 15.2193 18.4803 15.0378 18.4803Z" fill="#FFDF00"/>
</svg>
