<svg width="593" height="437" viewBox="0 0 593 437" fill="none" xmlns="http://www.w3.org/2000/svg">
<g clip-path="url(#clip0_17_2)">
<path opacity="0.1" d="M6.40511 232.564C15.7885 272.699 35.6524 307.393 67.0456 324.21C132.286 359.158 279.42 341.135 389.231 320.423C444.719 309.993 495.085 281.18 532.219 238.622L6.40511 232.564Z" fill="#009C3B"/>
<path opacity="0.1" d="M582.244 43.6567H521.992C520.611 43.6567 519.287 43.1076 518.31 42.1303C517.333 41.1529 516.785 39.8273 516.785 38.4451C516.785 37.0629 517.333 35.7373 518.31 34.7599C519.287 33.7825 520.611 33.2334 521.992 33.2334H532.408C531.027 33.2334 529.702 32.6843 528.726 31.707C527.749 30.7296 527.2 29.404 527.2 28.0218C527.2 26.6396 527.749 25.3139 528.726 24.3366C529.702 23.3592 531.027 22.8101 532.408 22.8101H524.971C523.59 22.8101 522.265 22.261 521.288 21.2837C520.312 20.3063 519.763 18.9807 519.763 17.5985C519.763 16.2162 520.312 14.8906 521.288 13.9133C522.265 12.9359 523.59 12.3868 524.971 12.3868H556.418C549.44 9.14136 541.284 6.83168 531.889 5.62004C446.142 -5.40367 415.527 1.88778 404.728 9.4064C391.404 18.6559 376.54 25.4606 360.654 28.7385C307.748 39.6594 208.807 52.8035 119.13 24.5302C74.5588 10.4666 41.4305 34.2233 21.5774 73.9043H592.703C591.957 62.3722 589.725 51.7271 585.627 42.4018C584.686 43.2126 583.486 43.658 582.244 43.6567Z" fill="#009C3B"/>
<path opacity="0.1" d="M1.29183 148.804C-1.0226 172.145 -0.237432 195.69 3.62686 218.825L532.619 238.184C547.344 221.232 559.708 202.363 569.374 182.091L1.29183 148.804ZM210.515 198.757H200.099C201.48 198.757 202.805 199.306 203.782 200.283C204.758 201.261 205.307 202.586 205.307 203.969C205.307 205.351 204.758 206.676 203.782 207.654C202.805 208.631 201.48 209.18 200.099 209.18H139.848C138.466 209.18 137.142 208.631 136.165 207.654C135.188 206.676 134.64 205.351 134.64 203.969C134.64 202.586 135.188 201.261 136.165 200.283C137.142 199.306 138.466 198.757 139.848 198.757H150.263C148.882 198.757 147.558 198.208 146.581 197.23C145.604 196.253 145.056 194.927 145.056 193.545C145.056 192.163 145.604 190.837 146.581 189.86C147.558 188.883 148.882 188.334 150.263 188.334H142.826C141.445 188.334 140.12 187.784 139.143 186.807C138.167 185.83 137.618 184.504 137.618 183.122C137.618 181.74 138.167 180.414 139.143 179.437C140.12 178.459 141.445 177.91 142.826 177.91H203.077C204.458 177.91 205.783 178.459 206.76 179.437C207.736 180.414 208.285 181.74 208.285 183.122C208.285 184.504 207.736 185.83 206.76 186.807C205.783 187.784 204.458 188.334 203.077 188.334H210.515C211.896 188.334 213.221 188.883 214.197 189.86C215.174 190.837 215.723 192.163 215.723 193.545C215.723 194.927 215.174 196.253 214.197 197.23C213.221 198.208 211.896 198.757 210.515 198.757Z" fill="#009C3B"/>
<path opacity="0.1" d="M592.73 74.2613L15.1939 88.3249C8.1726 106.391 3.54038 126.821 1.37831 148.003H582.611C586.406 135.564 589.213 122.843 591.005 109.961C592.735 97.5096 593.427 85.4744 592.73 74.2613ZM118.627 120.325H108.211C109.592 120.325 110.917 120.874 111.894 121.852C112.87 122.829 113.419 124.155 113.419 125.537C113.419 126.919 112.87 128.245 111.894 129.222C110.917 130.199 109.592 130.748 108.211 130.748H47.96C46.5788 130.748 45.2541 130.199 44.2775 129.222C43.3008 128.245 42.7521 126.919 42.7521 125.537C42.7521 124.155 43.3008 122.829 44.2775 121.852C45.2541 120.874 46.5788 120.325 47.96 120.325H58.3757C56.9945 120.325 55.6699 119.776 54.6932 118.799C53.7165 117.821 53.1678 116.496 53.1678 115.113C53.1678 113.731 53.7165 112.406 54.6932 111.428C55.6699 110.451 56.9945 109.902 58.3757 109.902H50.9382C49.557 109.902 48.2324 109.353 47.2557 108.375C46.279 107.398 45.7303 106.072 45.7303 104.69C45.7303 103.308 46.279 101.982 47.2557 101.005C48.2324 100.028 49.557 99.4785 50.9382 99.4785H111.19C112.571 99.4785 113.895 100.028 114.872 101.005C115.849 101.982 116.397 103.308 116.397 104.69C116.397 106.072 115.849 107.398 114.872 108.375C113.895 109.353 112.571 109.902 111.19 109.902H118.627C120.008 109.902 121.333 110.451 122.31 111.428C123.286 112.406 123.835 113.731 123.835 115.113C123.835 116.496 123.286 117.821 122.31 118.799C121.333 119.776 120.008 120.325 118.627 120.325Z" fill="#009C3B"/>
<g opacity="0.1">
<path d="M366.227 337.137C366.227 337.137 381.469 299.544 409.933 285.6C421.914 279.834 431.702 270.334 437.829 258.527C440.69 252.893 443.03 247.009 444.818 240.948" stroke="#535461" stroke-width="2" stroke-miterlimit="10"/>
<path d="M462.703 232.05C459.736 235.782 444.38 241.245 444.38 241.245C444.38 241.245 446.228 225.018 449.196 221.313C450.669 219.674 452.711 218.66 454.906 218.477C457.101 218.293 459.284 218.955 461.008 220.327C462.732 221.699 463.868 223.678 464.184 225.859C464.5 228.041 463.972 230.261 462.709 232.066L462.703 232.05Z" fill="#009C3B"/>
<path d="M457.433 261.616C452.915 263.136 437.067 259.355 437.067 259.355C437.067 259.355 447.417 246.762 451.936 245.243C454.059 244.679 456.317 244.945 458.252 245.987C460.186 247.028 461.652 248.768 462.352 250.851C463.051 252.935 462.932 255.207 462.019 257.207C461.105 259.206 459.466 260.782 457.433 261.616Z" fill="#009C3B"/>
<path d="M428.862 296.559C424.197 295.59 412.419 284.318 412.419 284.318C412.419 284.318 427.705 278.676 432.375 279.644C434.488 280.234 436.298 281.605 437.439 283.48C438.58 285.355 438.967 287.594 438.52 289.743C438.074 291.892 436.827 293.792 435.034 295.056C433.241 296.32 431.034 296.856 428.862 296.553V296.559Z" fill="#009C3B"/>
<path d="M401.295 318.13C396.533 317.962 383.02 308.848 383.02 308.848C383.02 308.848 397.139 300.718 401.901 300.87C403.084 300.833 404.262 301.039 405.363 301.476C406.463 301.914 407.462 302.573 408.298 303.412C409.133 304.251 409.788 305.254 410.221 306.356C410.653 307.459 410.855 308.639 410.814 309.823C410.772 311.008 410.488 312.171 409.979 313.24C409.47 314.31 408.747 315.264 407.855 316.043C406.962 316.821 405.92 317.408 404.791 317.767C403.663 318.127 402.473 318.25 401.295 318.13Z" fill="#009C3B"/>
<path d="M422.31 248.791C422.921 253.524 433.24 266.138 433.24 266.138C433.24 266.138 440.034 251.317 439.429 246.584C439.006 244.427 437.78 242.512 435.999 241.227C434.218 239.942 432.015 239.383 429.837 239.664C427.659 239.945 425.669 241.044 424.271 242.739C422.874 244.434 422.173 246.598 422.31 248.791Z" fill="#009C3B"/>
<path d="M390.388 274.425C392.382 278.752 406.003 287.704 406.003 287.704C406.003 287.704 408.057 271.525 406.063 267.198C405.638 266.094 404.991 265.088 404.162 264.244C403.334 263.399 402.341 262.734 401.245 262.289C400.149 261.844 398.974 261.628 397.791 261.656C396.609 261.683 395.445 261.953 394.371 262.449C393.297 262.944 392.336 263.655 391.548 264.537C390.759 265.418 390.159 266.453 389.786 267.576C389.413 268.699 389.273 269.886 389.377 271.065C389.48 272.244 389.824 273.389 390.388 274.43V274.425Z" fill="#009C3B"/>
<path d="M362.778 303.601C364.01 308.21 375.929 319.331 375.929 319.331C375.929 319.331 380.685 303.736 379.448 299.128C378.74 297.049 377.269 295.317 375.333 294.283C373.397 293.25 371.141 292.991 369.021 293.56C366.902 294.128 365.078 295.482 363.918 297.347C362.759 299.211 362.351 301.447 362.778 303.601Z" fill="#009C3B"/>
<path opacity="0.25" d="M462.703 232.05C459.736 235.782 444.38 241.245 444.38 241.245C444.38 241.245 446.228 225.018 449.196 221.313C450.669 219.674 452.711 218.66 454.906 218.477C457.101 218.293 459.284 218.955 461.008 220.327C462.732 221.699 463.868 223.678 464.184 225.859C464.5 228.041 463.972 230.261 462.709 232.066L462.703 232.05Z" fill="black"/>
<path opacity="0.25" d="M457.433 261.616C452.915 263.136 437.067 259.355 437.067 259.355C437.067 259.355 447.417 246.762 451.936 245.243C454.059 244.679 456.317 244.945 458.252 245.987C460.186 247.028 461.652 248.768 462.352 250.851C463.051 252.935 462.932 255.207 462.019 257.207C461.105 259.206 459.466 260.782 457.433 261.616Z" fill="black"/>
<path opacity="0.25" d="M428.862 296.559C424.197 295.59 412.419 284.318 412.419 284.318C412.419 284.318 427.705 278.676 432.375 279.644C434.488 280.234 436.298 281.605 437.439 283.48C438.58 285.355 438.967 287.594 438.52 289.743C438.074 291.892 436.827 293.792 435.034 295.056C433.241 296.32 431.034 296.856 428.862 296.553V296.559Z" fill="black"/>
<path opacity="0.25" d="M401.295 318.13C396.533 317.962 383.02 308.848 383.02 308.848C383.02 308.848 397.139 300.718 401.901 300.87C403.084 300.833 404.262 301.039 405.363 301.476C406.463 301.914 407.462 302.573 408.298 303.412C409.133 304.251 409.788 305.254 410.221 306.356C410.653 307.459 410.855 308.639 410.814 309.823C410.772 311.008 410.488 312.171 409.979 313.24C409.47 314.31 408.747 315.264 407.855 316.043C406.962 316.821 405.92 317.408 404.791 317.767C403.663 318.127 402.473 318.25 401.295 318.13Z" fill="black"/>
<path opacity="0.25" d="M422.31 248.791C422.921 253.524 433.24 266.138 433.24 266.138C433.24 266.138 440.034 251.317 439.429 246.584C439.006 244.427 437.78 242.512 435.999 241.227C434.218 239.942 432.015 239.383 429.837 239.664C427.659 239.945 425.669 241.044 424.271 242.739C422.874 244.434 422.173 246.598 422.31 248.791Z" fill="black"/>
<path opacity="0.25" d="M390.388 274.425C392.382 278.752 406.003 287.704 406.003 287.704C406.003 287.704 408.057 271.525 406.063 267.198C405.638 266.094 404.991 265.088 404.162 264.244C403.334 263.399 402.341 262.734 401.245 262.289C400.149 261.844 398.974 261.628 397.791 261.656C396.609 261.683 395.445 261.953 394.371 262.449C393.297 262.944 392.336 263.655 391.548 264.537C390.759 265.418 390.159 266.453 389.786 267.576C389.413 268.699 389.273 269.886 389.377 271.065C389.48 272.244 389.824 273.389 390.388 274.43V274.425Z" fill="black"/>
<path opacity="0.25" d="M362.778 303.601C364.01 308.21 375.929 319.331 375.929 319.331C375.929 319.331 380.685 303.736 379.448 299.128C378.74 297.049 377.269 295.317 375.333 294.283C373.397 293.25 371.141 292.991 369.021 293.56C366.902 294.128 365.078 295.482 363.918 297.347C362.759 299.211 362.351 301.447 362.778 303.601Z" fill="black"/>
</g>
<g opacity="0.1">
<path d="M355.416 282.17C355.416 282.17 357.34 241.645 379.572 219.041C388.948 209.616 395.017 197.403 396.868 184.233C397.702 177.974 397.961 171.652 397.641 165.345" stroke="#535461" stroke-width="2" stroke-miterlimit="10"/>
<path d="M411.63 151.016C410.068 155.522 397.387 165.761 397.387 165.761C397.387 165.761 393.766 149.864 395.328 145.358C395.638 144.212 396.18 143.142 396.921 142.215C397.661 141.287 398.585 140.522 399.634 139.967C400.682 139.412 401.834 139.079 403.017 138.989C404.2 138.898 405.389 139.052 406.51 139.441C407.631 139.83 408.66 140.446 409.533 141.25C410.406 142.054 411.104 143.029 411.584 144.115C412.065 145.201 412.316 146.374 412.324 147.561C412.332 148.748 412.096 149.924 411.63 151.016Z" fill="#009C3B"/>
<path d="M416.43 180.636C412.646 183.568 396.463 185.267 396.463 185.267C396.463 185.267 402.057 169.948 405.814 167.016C406.698 166.23 407.733 165.633 408.856 165.263C409.98 164.893 411.167 164.758 412.345 164.865C413.522 164.972 414.666 165.32 415.704 165.887C416.742 166.454 417.652 167.228 418.38 168.161C419.107 169.094 419.635 170.167 419.932 171.312C420.229 172.458 420.288 173.652 420.105 174.821C419.922 175.991 419.502 177.11 418.87 178.11C418.237 179.11 417.407 179.97 416.43 180.636Z" fill="#009C3B"/>
<path d="M401.052 223.109C396.328 223.741 381.485 217.018 381.485 217.018C381.485 217.018 394.041 206.622 398.782 205.989C399.942 205.756 401.137 205.764 402.294 206.011C403.45 206.259 404.544 206.742 405.507 207.429C406.47 208.117 407.281 208.995 407.892 210.009C408.502 211.023 408.898 212.152 409.055 213.325C409.212 214.498 409.127 215.691 408.805 216.83C408.483 217.97 407.931 219.03 407.182 219.947C406.434 220.864 405.506 221.618 404.456 222.162C403.405 222.705 402.254 223.028 401.074 223.109H401.052Z" fill="#009C3B"/>
<path d="M382.193 252.604C377.642 254.027 361.875 249.9 361.875 249.9C361.875 249.9 372.491 237.529 377.042 236.107C379.178 235.585 381.432 235.897 383.346 236.979C385.26 238.061 386.691 239.832 387.347 241.932C388.003 244.031 387.835 246.302 386.878 248.283C385.921 250.263 384.246 251.805 382.193 252.593V252.604Z" fill="#009C3B"/>
<path d="M379.042 180.215C381.204 184.477 395.106 192.953 395.106 192.953C395.106 192.953 396.604 176.726 394.463 172.452C393.353 170.553 391.561 169.149 389.452 168.525C387.344 167.901 385.077 168.103 383.113 169.092C381.149 170.081 379.635 171.781 378.878 173.847C378.122 175.913 378.181 178.19 379.042 180.215Z" fill="#009C3B"/>
<path d="M357.422 214.995C360.74 218.419 376.556 222.34 376.556 222.34C376.556 222.34 373.134 206.4 369.816 202.976C368.188 201.495 366.058 200.69 363.859 200.725C361.66 200.76 359.556 201.633 357.977 203.165C356.398 204.697 355.461 206.774 355.358 208.972C355.255 211.171 355.993 213.327 357.422 215V214.995Z" fill="#009C3B"/>
<path d="M341.044 251.679C343.746 255.617 358.665 262.157 358.665 262.157C358.665 262.157 357.984 245.865 355.292 241.927C353.93 240.22 351.974 239.092 349.816 238.768C347.658 238.444 345.458 238.949 343.656 240.181C341.854 241.413 340.584 243.28 340.1 245.41C339.617 247.539 339.956 249.773 341.049 251.663L341.044 251.679Z" fill="#009C3B"/>
</g>
<path opacity="0.1" d="M162.014 419.615C183.267 426.766 209.196 422.417 233.308 422.92C236.611 422.99 240.103 423.196 242.751 424.429C245.4 425.663 246.702 427.675 248.518 429.379C255.275 435.756 269.117 437.806 281.22 436.724C293.322 435.642 304.419 432.062 315.813 429.335C335.552 424.619 358.119 422.477 377.588 427.615C379.377 428.086 381.258 428.627 383.172 428.443C387.442 428.021 388.712 424.602 391.696 422.65C397.101 419.123 408.792 420.08 411.154 415.434C412.543 412.729 409.349 409.917 405.873 408.056C392.566 400.938 373.529 399.764 356.114 400.862C338.698 401.96 321.575 404.989 304.067 405C282.257 405 261.183 400.353 239.584 398.449C224.622 397.13 208.293 397.292 194.267 401.154C179.105 405.384 175.754 414.817 162.014 419.615Z" fill="#009C3B"/>
<path d="M201.348 100.014H197.564V153.564H201.348V100.014Z" fill="#535461"/>
<path d="M201.348 171.955H197.564V202.246H201.348V171.955Z" fill="#535461"/>
<path d="M345.071 47.5459H225.725C211.665 47.5459 200.267 58.9522 200.267 73.0227V392.05C200.267 406.121 211.665 417.527 225.725 417.527H345.071C359.131 417.527 370.529 406.121 370.529 392.05V73.0227C370.529 58.9522 359.131 47.5459 345.071 47.5459Z" fill="#535461"/>
<path d="M345.071 64.8549H225.725C211.665 64.8549 200.267 76.2613 200.267 90.3317V376.364C200.267 390.435 211.665 401.841 225.725 401.841H345.071C359.131 401.841 370.529 390.435 370.529 376.364V90.3317C370.529 76.2613 359.131 64.8549 345.071 64.8549Z" fill="#009C3B"/>
<path d="M297.83 55.6595H273.506C272.462 55.6595 271.615 56.5071 271.615 57.5527C271.615 58.5982 272.462 59.4458 273.506 59.4458H297.83C298.874 59.4458 299.721 58.5982 299.721 57.5527C299.721 56.5071 298.874 55.6595 297.83 55.6595Z" fill="#EAEAF3"/>
<path d="M309.451 60.5277C310.943 60.5277 312.153 59.3168 312.153 57.8231C312.153 56.3294 310.943 55.1186 309.451 55.1186C307.958 55.1186 306.748 56.3294 306.748 57.8231C306.748 59.3168 307.958 60.5277 309.451 60.5277Z" fill="#EAEAF3"/>
<g clip-path="url(#clip1_17_2)">
<path d="M300.292 274.354C300.579 274.507 300.907 274.568 301.23 274.529C301.553 274.491 301.857 274.353 302.1 274.137C302.342 273.92 302.513 273.634 302.587 273.317C302.661 273.001 302.637 272.669 302.516 272.367C302.548 272.207 302.571 272.091 302.604 271.931C303.225 271.352 304.006 270.971 304.845 270.838C305.685 270.704 306.545 270.824 307.316 271.182C308.087 271.54 308.733 272.12 309.172 272.846C309.61 273.573 309.821 274.414 309.778 275.262C309.581 280.041 309.818 285.198 306.636 289.05C321.16 277.204 327.783 257.022 323.347 238.87C321.171 235.843 320.156 231.821 321.132 228.177C322.356 229.366 324.744 229.047 324.379 226.988C324.183 226.175 323.981 225.364 323.785 224.55C332.151 221.292 334.335 233.708 324.425 238.763C325.229 242.214 325.67 245.739 325.739 249.282C326.858 246.088 328.72 243.204 331.173 240.869C333.548 238.734 336.688 237.479 339.61 236.047C343.165 234.3 347.11 237.764 345.711 241.461C343.344 241.159 341.67 243.982 343.817 245.5C340.045 251.823 332.813 255.841 325.465 255.905C324.722 263.12 322.447 270.094 318.791 276.361C323.485 269.237 332.569 271.288 339.749 270.985C340.225 270.925 340.709 271.004 341.14 271.214C341.572 271.424 341.933 271.754 342.18 272.165C342.427 272.576 342.548 273.05 342.53 273.529C342.511 274.008 342.354 274.471 342.076 274.862C341.131 274.807 340.184 274.845 339.247 274.977C338.806 275.042 338.397 275.242 338.074 275.548C337.752 275.855 337.532 276.254 337.445 276.69C337.359 277.126 337.409 277.578 337.59 277.984C337.771 278.391 338.074 278.731 338.456 278.959C332.159 284.722 322.4 285.961 314.741 282.283C312.476 285.13 309.922 287.735 307.118 290.055L295.731 284.637C295.75 284.491 295.776 284.343 295.8 284.2C296.822 284.767 297.91 285.208 299.04 285.511C297.825 280.889 296.471 278.182 300.291 274.354H300.292Z" fill="#F2F2F2"/>
<path d="M280.171 263.419C279.963 263.669 279.683 263.85 279.369 263.935C279.055 264.021 278.722 264.009 278.415 263.899C278.108 263.79 277.843 263.589 277.654 263.324C277.466 263.059 277.363 262.742 277.361 262.417C277.27 262.281 277.205 262.182 277.114 262.046C276.32 261.744 275.453 261.685 274.626 261.878C273.798 262.07 273.046 262.505 272.468 263.127C271.889 263.749 271.51 264.529 271.378 265.367C271.246 266.205 271.368 267.063 271.729 267.832C273.717 272.184 275.447 277.049 279.85 279.419C261.921 273.916 248.161 257.718 245.409 239.238C246.281 235.614 245.702 231.508 243.421 228.5C242.736 230.063 240.404 230.666 239.964 228.622C239.837 227.795 239.719 226.967 239.592 226.14C230.613 226.272 233.283 238.594 244.37 239.544C244.93 243.043 245.855 246.474 247.129 249.781C244.886 247.244 242.071 245.274 238.917 244.035C235.911 242.952 232.528 242.972 229.281 242.746C225.329 242.467 222.984 247.16 225.677 250.057C227.755 248.886 230.373 250.871 228.957 253.084C234.84 257.52 243.057 258.519 249.886 255.812C253.301 262.213 258.043 267.815 263.797 272.244C256.758 267.413 249.119 272.733 242.356 275.155C241.892 275.279 241.474 275.535 241.154 275.891C240.833 276.248 240.624 276.69 240.55 277.164C240.477 277.637 240.544 278.122 240.742 278.559C240.94 278.995 241.261 279.365 241.666 279.622C242.52 279.215 243.412 278.894 244.329 278.663C244.762 278.558 245.217 278.588 245.631 278.751C246.046 278.914 246.4 279.2 246.645 279.572C246.89 279.943 247.014 280.381 247 280.825C246.986 281.27 246.834 281.699 246.566 282.054C254.577 285.02 264.083 282.493 269.786 276.204C272.959 277.988 276.31 279.438 279.783 280.531L288.281 271.226C288.208 271.098 288.129 270.971 288.053 270.847C287.32 271.757 286.479 272.575 285.547 273.282C284.926 268.544 285.156 265.527 280.172 263.419L280.171 263.419Z" fill="#F2F2F2"/>
<path d="M282.358 224.102C282.682 224.07 282.989 223.938 283.235 223.726C283.482 223.514 283.658 223.231 283.738 222.916C283.818 222.601 283.8 222.269 283.685 221.965C283.57 221.661 283.364 221.399 283.095 221.216C283.032 221.064 282.987 220.956 282.924 220.804C283.117 219.978 283.552 219.227 284.174 218.65C284.797 218.072 285.578 217.692 286.418 217.561C287.258 217.429 288.118 217.55 288.888 217.909C289.658 218.269 290.303 218.849 290.741 219.577C293.247 223.654 296.324 227.803 295.834 232.772C301.274 214.855 295.499 194.415 281.677 181.815C278.179 180.513 275.09 177.74 273.865 174.172C275.546 174.477 277.349 172.883 275.897 171.377C275.28 170.811 274.659 170.25 274.042 169.684C279.166 162.323 287.915 171.415 282.512 181.126C285.107 183.544 287.442 186.225 289.478 189.127C288.623 185.853 288.558 182.423 289.29 179.119C290.069 176.026 291.975 173.236 293.601 170.421C295.576 166.993 300.786 167.672 301.689 171.521C299.556 172.587 299.743 175.863 302.373 175.927C302.774 183.275 299.015 190.636 292.951 194.778C296.364 201.181 298.37 208.236 298.837 215.474C298.754 206.947 307.441 203.594 313.231 199.347C313.593 199.032 314.039 198.829 314.515 198.763C314.99 198.697 315.475 198.77 315.909 198.974C316.344 199.178 316.709 199.504 316.961 199.912C317.214 200.32 317.341 200.792 317.329 201.271C316.514 201.751 315.749 202.31 315.045 202.941C314.715 203.24 314.487 203.634 314.39 204.068C314.294 204.502 314.334 204.955 314.506 205.365C314.678 205.775 314.973 206.123 315.35 206.359C315.727 206.596 316.168 206.71 316.613 206.686C314.604 214.975 307.195 221.434 298.783 222.644C298.493 226.268 297.827 229.852 296.795 233.338L284.316 235.177C284.251 235.045 284.19 234.908 284.129 234.776C285.295 234.678 286.444 234.438 287.552 234.062C283.961 230.901 281.325 229.406 282.358 224.102L282.358 224.102Z" fill="#F2F2F2"/>
<path d="M294.909 220.108C289.228 220.108 286.146 219.415 285.07 217.936C284.121 216.631 284.757 214.909 285.494 212.915C286.024 211.482 286.625 209.858 286.625 208.25C286.625 200.431 290.597 196.467 298.43 196.467C302.328 196.467 306.513 198.533 309.625 201.995C312.454 205.142 313.863 208.908 313.492 212.328C313.187 215.133 311.879 216.978 309.375 218.133L309.229 218.201L309.187 218.045C308.971 217.24 308.605 216.483 308.109 215.813C308.061 216.865 307.795 217.895 307.329 218.84L307.302 218.894L307.244 218.91C304.411 219.716 301.048 219.934 298.435 220.034C297.164 220.083 295.988 220.108 294.909 220.108Z" fill="#2F2E41"/>
<path d="M296.458 231.003C296.24 230.364 295.873 229.786 295.386 229.317C294.9 228.848 294.309 228.502 293.661 228.307C293.014 228.112 292.33 228.074 291.665 228.195C291 228.317 290.373 228.596 289.838 229.007L271.151 240.159L265.303 225.918C265.797 225.194 266.049 224.334 266.023 223.459C265.996 222.584 265.693 221.739 265.156 221.047C264.619 220.355 263.876 219.85 263.034 219.606C262.192 219.361 261.294 219.388 260.469 219.684C259.643 219.981 258.933 220.53 258.44 221.254C257.947 221.978 257.696 222.839 257.724 223.714C257.751 224.589 258.056 225.433 258.593 226.124C259.131 226.816 259.874 227.32 260.716 227.564C261.077 231.67 263.08 250.026 270.048 249.359C275.905 248.798 290.45 239.129 294.967 235.777C295.69 235.241 296.224 234.49 296.492 233.632C296.759 232.774 296.747 231.853 296.458 231.003Z" fill="#FFB6B6"/>
<path d="M310.54 312H294.275L291.548 298.54L290.663 312H275.555C275.56 301.429 276.112 290.866 277.207 280.352L277.395 279.716L277.691 278.697L277.878 278.058L281.004 267.342L281.251 266.491H300.078C301.161 267.507 302.16 268.608 303.066 269.785C303.372 270.175 303.692 270.598 304.021 271.053C304.249 271.375 304.485 271.714 304.721 272.069C306.819 275.186 308.387 278.627 309.362 282.254V282.257C309.527 282.877 309.674 283.512 309.801 284.161V284.164C309.915 284.741 310.016 285.326 310.095 285.924C310.154 286.361 310.206 286.802 310.244 287.249C310.47 289.725 310.391 292.22 310.008 294.677L310.54 312Z" fill="#2F2E41"/>
<path d="M224.305 188.92C225.362 188.512 225.987 187.587 225.703 186.853C225.419 186.12 224.332 185.856 223.275 186.264C222.219 186.672 221.593 187.598 221.878 188.331C222.162 189.065 223.249 189.328 224.305 188.92Z" fill="#E6E6E6"/>
<path d="M237.605 187.217C238.661 186.809 239.286 185.884 239.002 185.151C238.718 184.417 237.631 184.153 236.575 184.562C235.518 184.97 234.893 185.895 235.177 186.628C235.461 187.362 236.548 187.626 237.605 187.217Z" fill="#3F3D56"/>
<path d="M223.152 200.246C224.208 199.837 224.834 198.912 224.55 198.179C224.265 197.445 223.178 197.182 222.122 197.59C221.066 197.998 220.44 198.923 220.725 199.657C221.009 200.39 222.096 200.654 223.152 200.246Z" fill="#FF6584"/>
<path d="M219.305 205.241C219.789 205.127 220.048 204.47 219.884 203.775C219.719 203.08 219.192 202.609 218.708 202.723C218.223 202.838 217.964 203.494 218.129 204.19C218.294 204.885 218.82 205.356 219.305 205.241Z" fill="#E6E6E6"/>
<path d="M219.226 213.699C219.71 213.585 219.969 212.928 219.804 212.233C219.64 211.538 219.113 211.067 218.629 211.181C218.144 211.296 217.885 211.952 218.05 212.647C218.215 213.343 218.741 213.813 219.226 213.699Z" fill="#3F3D56"/>
<path d="M230.898 196.181C231.382 196.067 231.642 195.41 231.477 194.715C231.312 194.019 230.785 193.549 230.301 193.663C229.816 193.778 229.557 194.434 229.722 195.129C229.887 195.825 230.413 196.295 230.898 196.181Z" fill="#E6E6E6"/>
<path d="M223.894 194.483C224.378 194.369 224.637 193.712 224.472 193.017C224.308 192.322 223.781 191.851 223.296 191.965C222.812 192.08 222.553 192.736 222.718 193.432C222.882 194.127 223.409 194.598 223.894 194.483Z" fill="#FF6584"/>
<path d="M231.318 186.695C231.802 186.581 232.061 185.924 231.896 185.229C231.732 184.534 231.205 184.063 230.721 184.177C230.236 184.292 229.977 184.948 230.142 185.643C230.307 186.339 230.833 186.81 231.318 186.695Z" fill="#3F3D56"/>
<path d="M234.77 245.233C235.281 244.634 234.996 243.555 234.133 242.822C233.271 242.089 232.158 241.98 231.647 242.579C231.136 243.178 231.421 244.258 232.284 244.99C233.146 245.723 234.26 245.832 234.77 245.233Z" fill="#E6E6E6"/>
<path d="M226.938 234.371C227.449 233.772 227.163 232.692 226.301 231.96C225.438 231.227 224.325 231.118 223.814 231.717C223.304 232.316 223.589 233.395 224.451 234.128C225.314 234.861 226.427 234.97 226.938 234.371Z" fill="#3F3D56"/>
<path d="M245.297 240.853C245.808 240.254 245.523 239.174 244.66 238.442C243.798 237.709 242.685 237.6 242.174 238.199C241.663 238.798 241.948 239.878 242.811 240.61C243.673 241.343 244.786 241.452 245.297 240.853Z" fill="#FF6584"/>
<path d="M250.527 240.973C251.061 240.497 251.225 239.811 250.893 239.44C250.562 239.069 249.86 239.154 249.326 239.63C248.792 240.106 248.628 240.792 248.959 241.163C249.291 241.534 249.993 241.449 250.527 240.973Z" fill="#E6E6E6"/>
<path d="M258.016 237.015C258.55 236.539 258.714 235.853 258.382 235.482C258.051 235.111 257.349 235.196 256.815 235.672C256.281 236.148 256.117 236.834 256.448 237.205C256.78 237.576 257.482 237.491 258.016 237.015Z" fill="#3F3D56"/>
<path d="M237.025 235.111C237.559 234.635 237.723 233.949 237.391 233.578C237.06 233.207 236.358 233.293 235.824 233.768C235.29 234.244 235.126 234.93 235.457 235.301C235.789 235.672 236.491 235.587 237.025 235.111Z" fill="#E6E6E6"/>
<path d="M238.864 242.067C239.398 241.592 239.562 240.905 239.23 240.535C238.899 240.164 238.197 240.249 237.663 240.725C237.129 241.2 236.965 241.887 237.297 242.257C237.628 242.628 238.33 242.543 238.864 242.067Z" fill="#FF6584"/>
<path d="M228.468 239.259C229.002 238.784 229.166 238.097 228.834 237.727C228.503 237.356 227.801 237.441 227.267 237.917C226.733 238.392 226.569 239.079 226.9 239.449C227.232 239.82 227.934 239.735 228.468 239.259Z" fill="#3F3D56"/>
<path d="M287.389 175.566C288.096 175.219 288.264 174.115 287.765 173.101C287.265 172.086 286.286 171.545 285.579 171.892C284.872 172.24 284.704 173.343 285.204 174.358C285.704 175.372 286.682 175.913 287.389 175.566Z" fill="#E6E6E6"/>
<path d="M290.254 188.64C290.961 188.293 291.129 187.19 290.629 186.175C290.129 185.161 289.151 184.62 288.444 184.967C287.737 185.314 287.569 186.417 288.069 187.432C288.569 188.446 289.547 188.987 290.254 188.64Z" fill="#3F3D56"/>
<path d="M275.986 175.412C276.693 175.065 276.861 173.961 276.361 172.946C275.861 171.932 274.883 171.391 274.175 171.738C273.468 172.085 273.3 173.189 273.8 174.203C274.3 175.218 275.279 175.759 275.986 175.412Z" fill="#FF6584"/>
<path d="M269.992 171.263C270.671 171.038 271.095 170.473 270.938 170.001C270.781 169.53 270.104 169.329 269.424 169.554C268.745 169.779 268.321 170.344 268.478 170.816C268.634 171.287 269.312 171.488 269.992 171.263Z" fill="#E6E6E6"/>
<path d="M261.544 171.925C262.223 171.7 262.647 171.135 262.49 170.664C262.333 170.192 261.656 169.992 260.976 170.217C260.297 170.441 259.873 171.006 260.03 171.478C260.186 171.95 260.864 172.15 261.544 171.925Z" fill="#3F3D56"/>
<path d="M280.05 181.996C280.729 181.771 281.153 181.206 280.996 180.735C280.839 180.263 280.161 180.063 279.482 180.287C278.803 180.512 278.379 181.077 278.536 181.549C278.692 182.021 279.37 182.221 280.05 181.996Z" fill="#E6E6E6"/>
<path d="M281.13 174.883C281.81 174.658 282.233 174.093 282.077 173.621C281.92 173.15 281.242 172.949 280.563 173.174C279.883 173.399 279.459 173.964 279.616 174.436C279.773 174.907 280.451 175.108 281.13 174.883Z" fill="#FF6584"/>
<path d="M289.553 181.582C290.233 181.357 290.657 180.793 290.5 180.321C290.343 179.849 289.665 179.649 288.986 179.874C288.306 180.098 287.883 180.663 288.039 181.135C288.196 181.607 288.874 181.807 289.553 181.582Z" fill="#3F3D56"/>
<path d="M292.161 222.285L301.122 221.824L305.284 228.388C305.284 228.388 313.114 229.695 312.571 238.905C312.028 248.115 303.044 256.197 303.044 256.197L303.428 260.994L302.761 262.896L302.846 263.964L303.756 265.095L303.85 266.265L303.044 268.116L304.14 269.889L281.09 267.66L280.247 264.595L281.477 262.949L280.79 260.802L281.822 258.738L282.361 252.179C282.361 252.179 276.47 243.346 283.232 236.694L285.946 232.088L288.983 228.391L292.161 222.285Z" fill="#83BF1D"/>
<path d="M296.616 220.432C301.86 220.432 306.11 216.189 306.11 210.955C306.11 205.721 301.86 201.478 296.616 201.478C291.372 201.478 287.122 205.721 287.122 210.955C287.122 216.189 291.372 220.432 296.616 220.432Z" fill="#FFB6B6"/>
<path d="M295.345 210.381C294.527 210.381 293.709 210.358 292.892 210.312L292.746 210.303L292.765 210.159C292.885 209.254 292.817 208.334 292.566 207.457C292.138 208.456 291.502 209.353 290.7 210.087L290.655 210.128L290.594 210.121C288.375 209.879 286.175 209.479 284.013 208.923L283.93 208.902L283.913 208.819C283.752 208.027 283.668 207.222 283.664 206.414C283.664 203.89 284.58 201.766 286.245 200.433C288.057 198.982 290.654 198.536 293.56 199.176H302.854C303.876 199.177 304.855 199.582 305.578 200.304C306.3 201.025 306.706 202.003 306.708 203.022V208.897L306.606 208.923C302.93 209.888 299.146 210.377 295.345 210.381Z" fill="#2F2E41"/>
<path d="M230.56 199.839C230.144 199.991 229.805 200.302 229.618 200.702C229.431 201.103 229.411 201.562 229.562 201.977L239.588 229.437C239.741 229.852 240.052 230.19 240.453 230.377C240.855 230.564 241.314 230.584 241.73 230.433L280.643 216.278C281.059 216.126 281.398 215.815 281.585 215.414C281.772 215.014 281.792 214.555 281.641 214.14L271.615 186.68C271.463 186.265 271.152 185.927 270.75 185.74C270.349 185.553 269.889 185.533 269.473 185.684L230.56 199.839Z" fill="#CCCCCC"/>
<path d="M266.161 220.032L242.342 228.696C241.894 228.859 241.4 228.837 240.967 228.636C240.535 228.435 240.2 228.072 240.037 227.625L230.943 202.719C230.78 202.272 230.802 201.778 231.003 201.347C231.205 200.915 231.569 200.581 232.017 200.418L268.731 187.063C269.179 186.9 269.674 186.922 270.106 187.123C270.538 187.324 270.873 187.688 271.036 188.134L275.43 200.169C276.835 204.03 276.648 208.29 274.91 212.013C273.173 215.737 270.026 218.621 266.161 220.032Z" fill="white"/>
<path d="M249.022 202.04L243.362 204.099C243.291 204.125 243.215 204.136 243.14 204.133C243.065 204.13 242.99 204.112 242.922 204.08C242.853 204.048 242.792 204.003 242.741 203.947C242.69 203.892 242.65 203.827 242.624 203.756C242.598 203.685 242.587 203.61 242.59 203.535C242.593 203.459 242.611 203.385 242.643 203.317C242.675 203.249 242.72 203.187 242.776 203.136C242.832 203.085 242.897 203.046 242.968 203.02L248.628 200.961C248.771 200.909 248.93 200.916 249.068 200.98C249.206 201.044 249.313 201.161 249.365 201.304C249.418 201.447 249.411 201.605 249.346 201.743C249.282 201.881 249.165 201.988 249.022 202.04H249.022Z" fill="#83BF1D"/>
<path d="M262.516 199.631L244.168 206.305C244.097 206.331 244.021 206.343 243.946 206.34C243.87 206.337 243.796 206.319 243.727 206.287C243.659 206.255 243.597 206.21 243.546 206.154C243.495 206.099 243.455 206.034 243.429 205.963C243.403 205.892 243.392 205.817 243.395 205.741C243.398 205.666 243.417 205.592 243.449 205.523C243.48 205.455 243.526 205.394 243.581 205.343C243.637 205.292 243.702 205.252 243.774 205.226L262.122 198.552C262.193 198.526 262.268 198.515 262.344 198.518C262.419 198.521 262.493 198.539 262.562 198.571C262.63 198.603 262.692 198.648 262.743 198.703C262.794 198.759 262.833 198.824 262.859 198.895C262.885 198.966 262.897 199.041 262.894 199.116C262.89 199.192 262.872 199.266 262.84 199.334C262.808 199.402 262.763 199.464 262.708 199.515C262.652 199.566 262.587 199.605 262.516 199.631Z" fill="#83BF1D"/>
<path d="M263.441 202.164L245.092 208.838C245.021 208.864 244.946 208.876 244.87 208.873C244.795 208.869 244.721 208.851 244.652 208.819C244.584 208.788 244.522 208.743 244.471 208.687C244.42 208.631 244.381 208.566 244.355 208.496C244.329 208.425 244.317 208.349 244.321 208.274C244.324 208.199 244.342 208.125 244.374 208.056C244.406 207.988 244.451 207.927 244.507 207.876C244.562 207.825 244.627 207.785 244.698 207.759L263.047 201.085C263.19 201.033 263.348 201.04 263.486 201.104C263.624 201.169 263.731 201.285 263.783 201.428C263.836 201.571 263.829 201.729 263.765 201.867C263.7 202.005 263.584 202.112 263.441 202.164Z" fill="#83BF1D"/>
<path d="M264.365 204.697L246.017 211.371C245.946 211.397 245.871 211.409 245.795 211.406C245.72 211.403 245.645 211.385 245.577 211.353C245.508 211.321 245.447 211.276 245.396 211.22C245.345 211.165 245.305 211.1 245.279 211.029C245.253 210.958 245.241 210.882 245.245 210.807C245.248 210.732 245.266 210.658 245.298 210.589C245.33 210.521 245.375 210.459 245.431 210.408C245.487 210.358 245.552 210.318 245.623 210.292L263.971 203.618C264.042 203.592 264.118 203.58 264.193 203.584C264.269 203.587 264.343 203.605 264.411 203.637C264.48 203.669 264.541 203.714 264.592 203.769C264.644 203.825 264.683 203.89 264.709 203.961C264.735 204.032 264.746 204.107 264.743 204.182C264.74 204.257 264.722 204.331 264.69 204.4C264.658 204.468 264.613 204.53 264.557 204.58C264.502 204.631 264.436 204.671 264.365 204.697Z" fill="#83BF1D"/>
<path d="M265.29 207.23L246.942 213.904C246.799 213.956 246.64 213.95 246.502 213.885C246.364 213.821 246.257 213.704 246.204 213.561C246.152 213.418 246.159 213.26 246.223 213.122C246.288 212.984 246.405 212.877 246.548 212.825L264.896 206.151C264.967 206.125 265.043 206.113 265.118 206.117C265.194 206.12 265.268 206.138 265.336 206.17C265.405 206.202 265.466 206.247 265.517 206.302C265.568 206.358 265.608 206.423 265.634 206.494C265.66 206.564 265.671 206.64 265.668 206.715C265.665 206.79 265.647 206.864 265.615 206.933C265.583 207.001 265.538 207.062 265.482 207.113C265.426 207.164 265.361 207.204 265.29 207.23H265.29Z" fill="#83BF1D"/>
<path d="M323.509 214.264L313.464 238.259C313.035 239.275 312.224 240.081 311.205 240.505C310.185 240.928 309.04 240.935 308.017 240.523C307.487 240.31 307.006 239.991 306.604 239.587C306.202 239.182 305.886 238.7 305.676 238.17C305.467 237.64 305.367 237.073 305.385 236.503C305.402 235.933 305.535 235.373 305.776 234.856L316.977 210.251L323.151 195.013C322.618 194.482 322.261 193.8 322.13 193.059C321.998 192.318 322.098 191.555 322.416 190.873C322.734 190.191 323.255 189.624 323.907 189.248C324.56 188.871 325.313 188.705 326.063 188.77C326.814 188.836 327.526 189.131 328.103 189.614C328.68 190.098 329.094 190.747 329.289 191.474C329.483 192.201 329.449 192.97 329.19 193.676C328.932 194.383 328.461 194.993 327.843 195.423L323.509 214.264Z" fill="#FFB6B6"/>
</g>
</g>
<defs>
<clipPath id="clip0_17_2">
<rect width="593" height="437" fill="white"/>
</clipPath>
<clipPath id="clip1_17_2">
<rect width="128" height="145" fill="white" transform="translate(218 167)"/>
</clipPath>
</defs>
</svg>
