<svg width="227" height="171" viewBox="0 0 227 171" fill="none" xmlns="http://www.w3.org/2000/svg">
<path fill-rule="evenodd" clip-rule="evenodd" d="M128.256 1.00557L129.839 0.997115L222.981 0.500045L222.984 1.00074C223.006 1.00025 223.029 1 223.051 1C224.708 1 226.051 2.34315 226.051 4C226.051 5.65685 224.708 7 223.051 7L223.016 6.9998L223.019 7.49995L132.895 7.98091L109.965 167.996L109.42 167.918C109.078 169.199 107.91 170.142 106.522 170.142C104.865 170.142 103.522 168.798 103.522 167.142C103.522 167.119 103.522 167.096 103.522 167.073L103.035 167.004L121.424 38.6793L121.079 39.9242L120.368 42.4898H117.706H89.0527L80.5033 103.335L71.5305 167.193L71.1071 170.206H68.0645H23.0841H19.0579L19.6181 166.219L36.9792 42.6627L5.14655 43.9969L0.943741 44.1731L1.53469 40.0083L6.42894 5.51552L6.81214 5.56989C6.94508 4.03594 8.23239 2.83234 9.80082 2.83234C11.4577 2.83234 12.8008 4.17548 12.8008 5.83234C12.8008 6.03054 12.7816 6.22425 12.7449 6.41171L13.3595 6.49891L9.05622 36.8269L40.8831 35.4929L45.0801 35.317L44.4956 39.4768L27.1102 163.206H65.0219L73.5714 102.361L82.5441 38.5028L82.9675 35.4898H86.0101H115.044L122.671 7.95735L69.9696 7.49986L69.9739 6.99862C68.3596 6.95009 67.0658 5.62614 67.0658 4C67.0658 2.35642 68.3875 1.02154 70.026 1.00026L70.0303 0.500127L127.292 0.997197L128.256 1.00557ZM170.357 33.1597L213.446 32.5004L213.449 32.6373C215.004 32.7489 216.231 34.0459 216.231 35.6295C216.231 37.1819 215.052 38.4589 213.54 38.6137L213.554 39.4996L173.466 40.1129L169.301 70.2157H203.272H207.345L206.732 74.2422L201.838 106.404L201.385 109.378H198.377H163.864L154.96 168.025L154.363 167.935C154.015 169.207 152.851 170.142 151.469 170.142C149.812 170.142 148.469 168.798 148.469 167.142C148.469 167.108 148.469 167.074 148.47 167.04L148.04 166.975L157.395 105.353L157.846 102.378H160.855H195.37L199.199 77.2157H165.283H161.265L161.816 73.236L166.943 36.1795L167.355 33.2056L170.357 33.1597Z" fill="#FFE600"/>
</svg>
