<svg width="255" height="255" viewBox="0 0 255 255" fill="none" xmlns="http://www.w3.org/2000/svg">
<rect width="255" height="255" rx="18" fill="#FFE600"/>
<path fill-rule="evenodd" clip-rule="evenodd" d="M85.3197 50.0201L140.279 50.4971L141.253 50.5056L142.847 50.4971L233.805 50.0117C234.354 49.3912 235.157 49 236.051 49C237.708 49 239.051 50.3431 239.051 52C239.051 53.6569 237.708 55 236.051 55C235.168 55 234.375 54.6186 233.826 54.0116L144.593 54.4878L121.844 213.242C122.267 213.76 122.522 214.421 122.522 215.142C122.522 216.798 121.178 218.142 119.522 218.142C117.865 218.142 116.522 216.798 116.522 215.142C116.522 214.086 117.067 213.157 117.892 212.622L139.231 63.7088L132.634 87.5238L132.227 88.9898H130.706H100.749L92.0179 151.126L83.045 214.985L82.8031 216.706H81.0645H36.0841H33.7834L34.1035 214.428L51.7151 89.0886L18.0837 90.4982L15.6821 90.5989L16.0198 88.219L20.6084 55.8802C20.1075 55.344 19.8008 54.624 19.8008 53.8323C19.8008 52.1755 21.144 50.8323 22.8008 50.8323C24.4577 50.8323 25.8008 52.1755 25.8008 53.8323C25.8008 54.815 25.3284 55.6873 24.5982 56.2345L20.3178 86.4011L53.9459 84.9916L56.3442 84.8911L56.0102 87.2681L38.3847 212.706H79.3259L88.0568 150.57L97.0295 86.7116L97.2715 84.9898H99.0101H129.185L137.638 54.4744L85.2839 54.0199C84.7352 54.6221 83.9446 55 83.0658 55C81.4089 55 80.0658 53.6569 80.0658 52C80.0658 50.3431 81.4089 49 83.0658 49C83.9639 49 84.7699 49.3947 85.3197 50.0201ZM224.434 86.0318C224.934 86.4072 225.557 86.6295 226.231 86.6295C227.888 86.6295 229.231 85.2863 229.231 83.6295C229.231 81.9726 227.888 80.6295 226.231 80.6295C225.156 80.6295 224.214 81.1941 223.684 82.0428L183.38 82.6595L181.664 82.6857L181.429 84.3851L176.302 121.442L175.987 123.716H178.283H213.944L209.659 151.878H173.855H172.136L171.878 153.578L162.922 212.571C162.051 213.096 161.469 214.051 161.469 215.142C161.469 216.798 162.812 218.142 164.469 218.142C166.126 218.142 167.469 216.798 167.469 215.142C167.469 214.457 167.239 213.826 166.854 213.321L175.574 155.878H211.377H213.096L213.355 154.179L218.249 122.017L218.599 119.716H216.272H180.579L185.156 86.6328L224.434 86.0318Z" fill="#174127"/>
</svg>
