<svg width="255" height="255" viewBox="0 0 255 255" fill="none" xmlns="http://www.w3.org/2000/svg">
<rect width="255" height="255" rx="18" fill="#FFE600"/>
<path fill-rule="evenodd" clip-rule="evenodd" d="M83.1513 49.0012L140.288 49.4972L141.255 49.5056L142.842 49.4971L235.984 49V49.0007C236.006 49.0002 236.029 49 236.051 49C237.708 49 239.051 50.3431 239.051 52C239.051 53.6569 237.708 55 236.051 55L236.016 55L145.461 55.4832L122.47 215.926L122.42 215.918C122.078 217.199 120.91 218.142 119.522 218.142C117.865 218.142 116.522 216.798 116.522 215.142C116.522 214.849 116.563 214.567 116.641 214.3L136.026 79.0225L133.597 87.7908L132.988 89.9898H130.706H101.618L93.0081 151.266L84.0353 215.124L83.6724 217.706H81.0645H36.0841H32.6331L33.1132 214.289L50.5578 90.138L18.1256 91.4974L14.5232 91.6484L15.0297 88.0785L19.8297 54.2502C19.8107 54.1137 19.8008 53.9742 19.8008 53.8323C19.8008 52.1755 21.144 50.8323 22.8008 50.8323C24.4577 50.8323 25.8008 52.1755 25.8008 53.8323C25.8008 54.0305 25.7816 54.2242 25.7449 54.4117L25.8645 54.4287L21.4768 85.3516L53.904 83.9925L57.5014 83.8417L57.0004 87.4073L39.5351 211.706H78.4566L87.0665 150.431L96.0393 86.5724L96.4021 83.9898H99.0101H128.424L136.327 55.463L82.9739 54.9999L82.9739 54.9986C81.3596 54.9501 80.0658 53.6261 80.0658 52C80.0658 50.3564 81.3875 49.0215 83.026 49.0003V49.0001L83.0333 49.0002L83.0658 49C83.0944 49 83.1229 49.0004 83.1513 49.0012ZM226.54 86.6137C228.052 86.4589 229.231 85.1819 229.231 83.6295C229.231 81.9726 227.888 80.6295 226.231 80.6295C225.687 80.6295 225.178 80.774 224.738 81.0266L183.364 81.6596L180.791 81.699L180.439 84.2481L175.311 121.305L174.839 124.716H178.283H212.781L208.799 150.878H173.855H171.276L170.889 153.428L161.693 214.001C161.548 214.353 161.469 214.738 161.469 215.142C161.469 216.798 162.812 218.142 164.469 218.142C165.851 218.142 167.015 217.207 167.363 215.935L167.466 215.95L176.434 156.878H211.377H213.955L214.343 154.329L219.238 122.167L219.763 118.716H216.272H181.727L186.029 87.6195L226.546 86.9996L226.54 86.6137Z" fill="#174127"/>
</svg>
